<svg width="21" height="20" viewBox="0 0 21 20" fill="none" xmlns="http://www.w3.org/2000/svg">
<path d="M17.7659 16.9615C15.9104 14.254 14.0533 11.5475 12.197 8.84062C12.1727 8.80536 12.1505 8.76865 12.1203 8.72181C12.4454 8.34276 12.769 7.96533 13.0929 7.58809C14.7762 5.62755 16.4597 3.66683 18.143 1.70611C18.1535 1.69381 18.1618 1.67989 18.1712 1.66669H16.7416C14.9945 3.70119 13.2471 5.73588 11.4721 7.80275C11.4508 7.76424 11.4356 7.73114 11.4154 7.70166C10.0523 5.71345 8.68894 3.72561 7.32591 1.7374C7.3109 1.71533 7.30023 1.69038 7.28739 1.66669H2.44653C2.48849 1.73541 2.52719 1.8063 2.57258 1.87249C4.61848 4.85679 6.66492 7.84073 8.71136 10.8249C8.7327 10.856 8.75314 10.8878 8.78298 10.9328C8.61678 11.1278 8.44968 11.3247 8.28131 11.5207C6.37883 13.7363 4.47616 15.9516 2.57385 18.1673C2.52864 18.2201 2.48885 18.2778 2.44653 18.3334H3.87611C4.52354 17.5758 5.1697 16.8172 5.81839 16.0607C6.97163 14.7157 8.12651 13.3719 9.28066 12.0278C9.3228 11.9786 9.3662 11.9307 9.41648 11.8734C9.44903 11.9128 9.47796 11.9432 9.50147 11.9774C10.9323 14.0634 12.3628 16.1497 13.7931 18.2362C13.8143 18.2672 13.8313 18.301 13.8503 18.3334H18.6909C18.3828 17.876 18.0777 17.4165 17.7659 16.9615ZM16.5476 17.2973C15.9305 17.2978 15.3135 17.2946 14.6964 17.3004C14.5816 17.3013 14.5109 17.2685 14.4438 17.1725C11.1296 12.4177 7.81274 7.66459 4.49641 2.91126C4.46585 2.8675 4.438 2.82174 4.38917 2.74687C4.99446 2.74687 5.5681 2.76966 6.13884 2.73819C6.47648 2.71957 6.66257 2.83838 6.85372 3.11363C10.0921 7.77599 13.3433 12.4295 16.5917 17.085C16.6338 17.1454 16.6745 17.2067 16.7298 17.2877C16.6505 17.2921 16.5991 17.2971 16.5476 17.2973Z" fill="#555555"/>
</svg>
