<svg width="33" height="33" viewBox="0 0 33 33" fill="none" xmlns="http://www.w3.org/2000/svg">
<g clip-path="url(#clip0_1195_1051)">
<path d="M32.0535 7.34419C32.3893 7.66919 32.561 8.03669 32.3676 8.49085C32.181 8.92919 31.8135 9.06419 31.3551 9.06252C29.5351 9.05419 27.7151 9.05919 25.896 9.05919H25.4985V12.3917C25.5826 12.3984 25.6718 12.4109 25.761 12.4109C26.3851 12.4134 27.0093 12.4109 27.6326 12.4125C28.336 12.4142 28.701 12.7834 28.7018 13.495C28.7035 14.7742 28.7026 16.0525 28.7026 17.3317C28.7026 21.9684 28.696 26.605 28.711 31.2425C28.7126 31.8209 28.556 32.25 28.0168 32.5H20.2168C20.2193 31.6475 20.2235 30.795 20.2235 29.9425V13.5992C20.2235 12.7425 20.5543 12.4125 21.4101 12.4117C22.1068 12.4117 22.8035 12.41 23.5001 12.4075C23.5193 12.4075 23.5385 12.3959 23.6001 12.3759V12.0292C23.6001 8.59752 23.5993 5.16669 23.6026 1.73585C23.6026 1.56085 23.611 1.37919 23.6585 1.21252C23.7776 0.790021 24.2126 0.514188 24.6426 0.564188C25.0843 0.615021 25.4301 0.965854 25.4643 1.40919C25.4776 1.59252 25.466 1.77752 25.466 1.99585H25.8385C27.6793 1.99585 29.5201 2.00002 31.3601 1.99335C31.806 1.99169 32.1635 2.12669 32.3568 2.54502C32.5576 2.98002 32.4101 3.34669 32.0993 3.67919C31.5093 4.30835 30.9276 4.94669 30.3226 5.60335C30.3926 5.68085 30.4568 5.75669 30.5268 5.82669C31.0343 6.33419 31.5385 6.84419 32.0535 7.34419Z" fill="#FF782D"/>
<path d="M18.3494 20.6849C18.351 24.6233 18.3477 28.5616 18.3452 32.4999H10.9827C10.9819 28.5716 10.9794 24.6441 10.981 20.7158C10.981 20.1283 11.3627 19.7299 11.9535 19.7266C13.7619 19.7174 15.571 19.7174 17.3794 19.7266C17.9594 19.7299 18.3485 20.1199 18.3494 20.6849Z" fill="#FF782D"/>
<path d="M9.11106 32.4999H1.49856C0.959395 32.2733 0.778561 31.8666 0.786895 31.2891C0.811061 29.5541 0.794395 27.8191 0.796061 26.0833C0.796061 25.3124 1.14689 24.9633 1.92189 24.9633C3.93773 24.9624 5.95439 24.9624 7.97023 24.9633C8.75523 24.9633 9.1069 25.3191 9.10773 26.1091C9.1094 28.2391 9.11023 30.3699 9.11106 32.4999Z" fill="#FF782D"/>
<path d="M17.62 9.02256C17.1392 9.24923 16.615 9.04423 16.3483 8.5209C16.1417 8.11506 15.9417 7.70756 15.7175 7.2584C15.645 7.38256 15.5917 7.46423 15.5458 7.55006C12.4825 13.2392 8.01 17.4134 2.10667 20.0492C1.28917 20.4142 0.965 20.3176 0.5 19.5867V19.0876C0.661667 18.6967 0.976667 18.4984 1.3525 18.3317C6.825 15.8984 10.975 12.0317 13.8375 6.77756C13.895 6.67173 13.9433 6.56173 14.0267 6.39256C13.4742 6.50256 12.99 6.60673 12.5025 6.6934C12.0833 6.76756 11.6767 6.5434 11.5042 6.16507C11.2608 5.63007 11.5575 5.0009 12.1425 4.8709C13.2375 4.6284 14.335 4.39923 15.435 4.17923C15.9725 4.07173 16.3117 4.2484 16.5567 4.7384C17.0508 5.72173 17.5417 6.70673 18.0258 7.69506C18.2883 8.2309 18.1108 8.7909 17.62 9.02256Z" fill="#FF782D"/>
</g>
<defs>
<clipPath id="clip0_1195_1051">
<rect width="32" height="32" fill="white" transform="translate(0.5 0.5)"/>
</clipPath>
</defs>
</svg>
