<svg width="21" height="20" viewBox="0 0 21 20" fill="none" xmlns="http://www.w3.org/2000/svg">
<path d="M19.6481 5.72932C19.4477 4.62185 18.7708 3.91093 17.7126 3.71738C17.276 3.63722 16.8313 3.57881 16.3878 3.55877C14.507 3.47373 12.6254 3.40702 10.744 3.33344C10.7434 3.3529 10.7428 3.37237 10.7423 3.39184C10.3096 3.39184 9.87673 3.38554 9.44439 3.39299C7.65062 3.42305 5.85657 3.44281 4.07225 3.66556C2.96249 3.80385 2.19374 4.46381 1.96268 5.56097C1.83355 6.17368 1.76312 6.80186 1.71215 7.42689C1.60307 8.76369 1.57615 10.1048 1.67121 11.4436C1.73019 12.2716 1.80578 13.1022 1.9435 13.9202C2.12416 14.9916 2.86257 15.7 3.90218 15.8543C4.51776 15.9456 5.13935 16.0235 5.76065 16.0438C7.6678 16.1057 9.5761 16.1629 11.4841 16.1724C13.3861 16.1821 15.2889 16.1369 17.1835 15.9379C17.672 15.8864 18.1532 15.8085 18.5801 15.5351C19.2862 15.083 19.6074 14.4035 19.6845 13.6056C19.7884 12.5259 19.8938 11.4436 19.9293 10.3605C19.9805 8.81065 19.925 7.2614 19.6481 5.72932ZM8.96682 12.5184V7.04552C10.5553 7.95858 12.1272 8.86219 13.7268 9.78183C12.1295 10.7003 10.5579 11.6037 8.96682 12.5184Z" fill="#555555"/>
</svg>
