<svg width="33" height="33" viewBox="0 0 33 33" fill="none" xmlns="http://www.w3.org/2000/svg">
<g clip-path="url(#clip0_1195_879)">
<path d="M27.2428 22.9001L27.3762 23.0334C27.6789 23.3387 28.0538 23.5625 28.4662 23.6839C28.8786 23.8054 29.315 23.8206 29.7348 23.7281C30.1479 23.6414 30.5325 23.4522 30.8533 23.178C31.1742 22.9038 31.4209 22.5533 31.5708 22.1588C32.307 20.2258 32.6589 18.1678 32.6068 16.1001C32.4568 12.0388 30.7863 8.18206 27.9266 5.29439C25.0668 2.40673 21.2265 0.698903 17.1668 0.50942C15.0202 0.434778 12.8804 0.79314 10.8752 1.56314C8.86998 2.33315 7.04033 3.49902 5.49533 4.99127C3.95033 6.48351 2.72161 8.27157 1.88243 10.2488C1.04325 12.2261 0.610796 14.3521 0.61084 16.5001C0.61578 20.742 2.30308 24.8088 5.30259 27.8083C8.3021 30.8079 12.3689 32.4951 16.6108 32.5001C17.0615 32.5001 17.5042 32.4708 17.9442 32.4334C18.278 32.4053 18.5891 32.2525 18.8154 32.0054C19.0417 31.7583 19.1667 31.4351 19.1655 31.1001L19.1228 26.3161C19.112 25.3707 19.3833 24.4436 19.9018 23.6531C20.4204 22.8625 21.1628 22.2445 22.0343 21.8779C22.9057 21.5113 23.8667 21.4127 24.7944 21.5948C25.7222 21.7769 26.5746 22.2313 27.2428 22.9001ZM23.3202 11.2334C23.7025 11.132 24.1063 11.1462 24.4805 11.2742C24.8548 11.4022 25.1826 11.6384 25.4227 11.9527C25.6627 12.2671 25.8042 12.6456 25.8291 13.0403C25.8541 13.4351 25.7614 13.8284 25.5629 14.1705C25.3643 14.5125 25.0688 14.7881 24.7137 14.9622C24.3586 15.1364 23.9598 15.2013 23.5677 15.1488C23.1757 15.0964 22.808 14.9288 22.5112 14.6674C22.2144 14.4059 22.0017 14.0624 21.9002 13.6801C21.8327 13.4262 21.8159 13.1615 21.8508 12.9011C21.8857 12.6408 21.9715 12.3898 22.1033 12.1626C22.2352 11.9354 22.4105 11.7364 22.6193 11.577C22.8281 11.4175 23.0663 11.3008 23.3202 11.2334ZM11.0135 23.1001C10.6312 23.2015 10.2274 23.1873 9.85316 23.0593C9.47892 22.9313 9.15105 22.6951 8.911 22.3808C8.67095 22.0664 8.52951 21.6879 8.50455 21.2932C8.4796 20.8984 8.57225 20.5051 8.77079 20.1631C8.96934 19.821 9.26486 19.5454 9.61999 19.3713C9.97513 19.1971 10.3739 19.1322 10.766 19.1847C11.158 19.2372 11.5257 19.4047 11.8225 19.6661C12.1193 19.9276 12.3319 20.2711 12.4335 20.6534C12.501 20.9073 12.5177 21.172 12.4829 21.4324C12.448 21.6928 12.3622 21.9437 12.2303 22.1709C12.0985 22.3981 11.9231 22.5971 11.7144 22.7565C11.5056 22.916 11.2674 23.0327 11.0135 23.1001ZM11.0135 15.1001C10.6312 15.2015 10.2274 15.1873 9.85316 15.0593C9.47892 14.9313 9.15105 14.6951 8.911 14.3808C8.67095 14.0664 8.52951 13.6879 8.50455 13.2932C8.4796 12.8984 8.57225 12.5051 8.77079 12.1631C8.96934 11.821 9.26486 11.5454 9.61999 11.3713C9.97513 11.1971 10.3739 11.1322 10.766 11.1847C11.158 11.2372 11.5257 11.4047 11.8225 11.6661C12.1193 11.9276 12.3319 12.2711 12.4335 12.6534C12.501 12.9073 12.5177 13.172 12.4829 13.4324C12.448 13.6928 12.3622 13.9437 12.2303 14.1709C12.0985 14.3981 11.9231 14.5971 11.7144 14.7565C11.5056 14.916 11.2674 15.0327 11.0135 15.1001ZM17.6802 11.1001C17.2979 11.2015 16.8941 11.1873 16.5198 11.0593C16.1456 10.9313 15.8177 10.6951 15.5777 10.3808C15.3376 10.0664 15.1962 9.68792 15.1712 9.29318C15.1463 8.89843 15.2389 8.50515 15.4375 8.16305C15.636 7.82096 15.9315 7.54542 16.2867 7.37127C16.6418 7.19712 17.0406 7.13218 17.4326 7.18467C17.8247 7.23716 18.1923 7.40471 18.4892 7.66614C18.786 7.92757 18.9986 8.27115 19.1002 8.65342C19.1676 8.90731 19.1844 9.172 19.1495 9.43238C19.1147 9.69275 19.0289 9.94371 18.897 10.1709C18.7651 10.3981 18.5898 10.5971 18.381 10.7565C18.1722 10.916 17.9341 11.0327 17.6802 11.1001Z" fill="#FF782D"/>
</g>
<defs>
<clipPath id="clip0_1195_879">
<rect width="32" height="32" fill="white" transform="translate(0.5 0.5)"/>
</clipPath>
</defs>
</svg>
