<svg width="33" height="33" viewBox="0 0 33 33" fill="none" xmlns="http://www.w3.org/2000/svg">
<g clip-path="url(#clip0_1195_1134)">
<path d="M15.0342 2.7257C15.035 3.23486 15.0342 3.74403 15.0342 4.25403C15.0333 4.96653 14.8133 5.24736 14.1292 5.4257C12.5325 5.84153 11.0508 6.50403 9.78083 7.5707C9.23083 8.03236 8.75 8.57653 8.27667 9.13486C8.92167 8.68653 9.60167 8.40653 10.3892 8.4557C11.1867 8.50486 11.8525 8.8282 12.37 9.4357C13.1833 10.3907 13.2633 11.7515 12.5775 12.7974C11.9042 13.8249 10.6058 14.2982 9.43333 13.939C8.71583 13.7199 8.1675 13.2815 7.795 12.6307C7.43 11.9907 7.35083 11.3024 7.5025 10.5799C7.46583 10.5715 7.42917 10.564 7.39333 10.5565C7.215 11.1332 7 11.7024 6.86667 12.289C6.46833 14.0474 6.53083 15.7932 7.0725 17.519C7.305 18.2574 7.17583 18.5707 6.505 18.9607C6.05583 19.2215 5.6075 19.4832 5.15417 19.7365C4.54333 20.0782 3.97167 19.8699 3.72417 19.2132C2.73167 16.574 2.615 13.889 3.31333 11.1632C3.33917 11.0649 3.3625 10.9657 3.4 10.8132C3.20917 10.8132 3.04917 10.8107 2.88917 10.814C2.52583 10.8207 2.16 10.8099 1.79917 10.844C1.21167 10.899 0.765 10.7165 0.5 10.1682V9.66986C1.43833 7.81986 2.3775 5.9707 3.31583 4.12153C3.35333 4.04736 3.3925 3.97403 3.43333 3.90153C3.80833 3.2382 4.57833 3.17403 5.05083 3.77736C5.46083 4.3007 5.85167 4.83903 6.25167 5.36986C6.31333 5.4507 6.37917 5.52736 6.45167 5.61736C7.35 4.66653 8.34083 3.8682 9.45833 3.2282C10.815 2.4507 12.2658 1.93986 13.8075 1.68903C14.5825 1.56236 15.0317 1.94736 15.0342 2.7257Z" fill="#FF782D"/>
<path d="M31.4408 10.8408C30.9217 10.8449 30.4017 10.8216 29.8825 10.8116C29.7817 10.8091 29.6808 10.8108 29.5475 10.8108C29.6458 11.2599 29.7458 11.6708 29.8258 12.0849C30.2875 14.4891 30.085 16.8408 29.245 19.1383C28.9708 19.8883 28.4075 20.0958 27.7175 19.7016C27.285 19.4541 26.855 19.2024 26.4225 18.9541C25.77 18.5783 25.6333 18.2524 25.8583 17.5366C26.4575 15.6299 26.4733 13.7141 25.9483 11.7933C25.835 11.3791 25.6683 10.9791 25.4825 10.5783C25.5967 11.3716 25.4908 12.1116 25.0525 12.7808C24.6083 13.4574 23.9792 13.8716 23.1825 14.0174C21.9592 14.2416 20.7058 13.5883 20.1667 12.4541C19.6225 11.3091 19.9225 9.93492 20.8883 9.11159C21.7442 8.38242 23.2575 8.06159 24.6067 9.16826C24.6283 9.14992 24.6492 9.13159 24.6708 9.11409C24.3783 8.78492 24.1017 8.43992 23.7892 8.13159C22.3983 6.76242 20.71 5.92826 18.8417 5.43242C18.1125 5.23909 17.9042 4.98076 17.9033 4.22576V2.75992C17.905 1.93909 18.3508 1.55409 19.1583 1.69242C21.9042 2.16159 24.2683 3.37159 26.23 5.35576C26.31 5.43659 26.3833 5.52492 26.4833 5.63659C26.8508 5.14909 27.1992 4.68742 27.5475 4.22492C27.66 4.07576 27.7683 3.92326 27.885 3.77742C28.3633 3.17909 29.1508 3.22659 29.5 3.90326C30.4517 5.74826 31.39 7.59992 32.3167 9.45742C32.6608 10.1474 32.215 10.8341 31.4408 10.8408Z" fill="#FF782D"/>
<path d="M26.5665 23.8249C24.749 26.0074 22.479 27.4799 19.7224 28.1891C19.6624 28.2041 19.6015 28.2199 19.5432 28.2391C19.5249 28.2449 19.5115 28.2641 19.4782 28.2916C19.6699 28.8616 19.864 29.4399 20.0565 30.0174C20.3365 30.8557 19.934 31.4107 19.0424 31.4116C17.3274 31.4132 15.6124 31.4132 13.8974 31.4116C12.9915 31.4107 12.6015 30.8574 12.8907 29.9916C13.0807 29.4232 13.2707 28.8541 13.4624 28.2791C12.9249 28.1049 12.399 27.9524 11.8849 27.7649C9.67488 26.9582 7.84821 25.6124 6.35488 23.8032C5.90154 23.2532 6.00821 22.6424 6.62404 22.2816C7.09071 22.0091 7.55821 21.7399 8.02738 21.4724C8.60404 21.1416 8.98738 21.1966 9.43654 21.6882C10.6999 23.0691 12.2082 24.0624 14.0274 24.5424C14.594 24.6916 15.1799 24.7666 15.7624 24.8441C14.0499 23.9507 13.3915 22.8432 13.7399 21.3949C14.0432 20.1316 15.1932 19.2399 16.499 19.2566C17.7999 19.2724 18.9232 20.1724 19.2032 21.4249C19.5299 22.8841 18.8665 23.9882 17.1149 24.8349C18.044 24.7799 18.889 24.5982 19.709 24.2941C21.1807 23.7482 22.4182 22.8607 23.4765 21.7116C23.959 21.1882 24.3232 21.1341 24.9332 21.4857C25.3832 21.7449 25.834 22.0016 26.2815 22.2641C26.9349 22.6474 27.0465 23.2482 26.5665 23.8249Z" fill="#FF782D"/>
</g>
<defs>
<clipPath id="clip0_1195_1134">
<rect width="32" height="32" fill="white" transform="translate(0.5 0.5)"/>
</clipPath>
</defs>
</svg>
