<svg width="21" height="20" viewBox="0 0 21 20" fill="none" xmlns="http://www.w3.org/2000/svg">
<path d="M19.1098 6.30981C19.0984 4.5135 18.2975 3.15046 16.7478 2.24314C16.0658 1.84368 15.3122 1.67086 14.5218 1.67045C12.0269 1.66841 9.53194 1.6623 7.03698 1.67208C5.00629 1.67982 3.30984 2.91935 2.66746 4.85507C2.57289 5.14039 2.53824 5.4461 2.47629 5.74243C2.46528 5.79501 2.45632 5.848 2.44653 5.90058V14.1024C2.49137 14.3519 2.51583 14.607 2.5839 14.85C3.10074 16.6948 4.29951 17.8279 6.16838 18.2502C6.3359 18.2881 6.50832 18.306 6.67829 18.3334H14.8818C15.1316 18.2885 15.3868 18.2641 15.6301 18.196C17.4729 17.68 18.6093 16.4832 19.0251 14.6164C19.0919 14.3176 19.109 14.003 19.1098 13.6956C19.1164 11.2337 19.1253 8.77175 19.1098 6.30981ZM10.7874 14.5687C8.27814 14.583 6.21077 12.5189 6.21199 10.0007C6.21321 7.48494 8.24676 5.44854 10.7727 5.43428C13.2819 5.42001 15.3493 7.48372 15.3481 10.0019C15.3468 12.5176 13.3133 14.554 10.7874 14.5687ZM15.6236 6.54663C14.8695 6.54419 14.2353 5.90914 14.2357 5.1567C14.2357 4.40181 14.8679 3.77247 15.6256 3.77329C16.3875 3.77369 17.0115 4.39855 17.0095 5.15914C17.0078 5.91729 16.3769 6.54908 15.6236 6.54663Z" fill="#555555"/>
<path d="M2.44653 14.1027C2.49137 14.3522 2.51583 14.6073 2.5839 14.8503C3.10074 16.6951 4.29951 17.8282 6.16838 18.2505C6.3359 18.2884 6.50832 18.3064 6.67829 18.3337C5.26757 18.3337 3.85685 18.3337 2.44653 18.3337C2.44653 16.9234 2.44653 15.513 2.44653 14.1027Z" fill="white"/>
<path d="M14.3636 10.0094C14.3571 11.9912 12.7397 13.5975 10.7645 13.5845C8.78597 13.5714 7.18979 11.9655 7.19631 9.99389C7.20283 8.01252 8.82062 6.40533 10.7959 6.41878C12.7744 6.43183 14.3702 8.03779 14.3636 10.0094Z" fill="#555555"/>
<path d="M16.0248 5.15555C16.0256 5.37484 15.8401 5.56152 15.6233 5.5603C15.4085 5.55908 15.2189 5.36587 15.2222 5.15147C15.2259 4.94074 15.4069 4.76058 15.6188 4.75772C15.841 4.75487 16.024 4.93422 16.0248 5.15555Z" fill="#555555"/>
</svg>
