<svg width="21" height="20" viewBox="0 0 21 20" fill="#555555" xmlns="http://www.w3.org/2000/svg">
<path d="M17.2167 7.27961C17.2215 8.55325 16.992 9.78302 16.4297 10.9338C15.8189 12.1832 14.9138 13.1429 13.5882 13.6282C12.5784 13.9988 11.5464 14.0899 10.5367 13.6066C10.2708 13.4797 10.0298 13.3016 9.76523 13.1389C9.67951 13.4683 9.58569 13.8098 9.50267 14.154C9.27724 15.0929 9.0059 16.0162 8.58743 16.891C8.3809 17.3223 8.15884 17.7448 7.80246 18.0762C7.73564 18.1383 7.65937 18.1923 7.5804 18.2395C7.27734 18.4197 6.97631 18.336 6.8123 18.0256C6.64559 17.7097 6.61319 17.3641 6.60374 17.0158C6.57269 15.8239 6.78935 14.6656 7.07216 13.5142C7.39141 12.2156 7.69244 10.9115 7.9955 9.60888C8.01575 9.52114 8.00562 9.41652 7.97795 9.32945C7.64857 8.28934 7.62292 7.26949 8.19056 6.29755C8.50306 5.76299 8.95258 5.40121 9.58366 5.30199C10.4739 5.1616 11.2596 5.80348 11.325 6.70252C11.373 7.35251 11.1894 7.95794 11.0186 8.5681C10.86 9.13101 10.6879 9.68987 10.53 10.2528C10.4422 10.5653 10.4503 10.8771 10.617 11.1667C10.9012 11.658 11.3561 11.818 11.8886 11.7701C12.5136 11.7147 12.9706 11.357 13.3384 10.8758C13.8089 10.2602 14.0694 9.55151 14.226 8.80163C14.3839 8.04366 14.467 7.27894 14.3549 6.50746C14.1747 5.26217 13.4795 4.4178 12.2902 4.03173C11.0902 3.64228 9.89077 3.69763 8.74875 4.26526C7.56488 4.85315 6.86495 5.83318 6.57674 7.10952C6.43095 7.75815 6.40395 8.41421 6.67124 9.04327C6.76505 9.26398 6.90274 9.47186 7.04921 9.66423C7.22402 9.89304 7.29489 10.1272 7.21727 10.4074C7.1518 10.6422 7.09983 10.8805 7.03234 11.1147C6.90004 11.5777 6.56932 11.7296 6.13195 11.5345C5.26395 11.1478 4.72399 10.4627 4.42499 9.58728C3.93767 8.16245 4.02271 6.75247 4.67337 5.39784C5.62978 3.40807 7.25035 2.26875 9.38793 1.83003C9.72068 1.76186 10.0636 1.73891 10.4017 1.69369C10.4382 1.68896 10.4739 1.67614 10.5097 1.66669H11.4216C11.6038 1.68829 11.786 1.70786 11.9683 1.73216C13.5214 1.93464 14.8544 2.57585 15.8871 3.76782C16.7551 4.77013 17.2127 5.9459 17.2167 7.27961Z" fill="#555555"/>
</svg>
